<svg viewBox="0 0 100 88" fill="none" xmlns="http://www.w3.org/2000/svg">
<g clip-path="url(#clip0_101_2)">
<path d="M74.4649 43.445C80.45 37.9868 80.8772 28.7102 75.4191 22.7251C69.9609 16.74 60.6843 16.3128 54.6992 21.771" stroke="#FFBF00" stroke-width="5.5" stroke-linecap="round" stroke-linejoin="round"/>
<path d="M22.667 65.9999C18.092 65.9999 13.7044 64.2615 10.4694 61.1672C7.2344 58.0728 5.41699 53.876 5.41699 49.4999C5.41699 45.1238 7.2344 40.927 10.4694 37.8326C13.7044 34.7383 18.092 32.9999 22.667 32.9999C23.7475 28.1862 26.9085 23.956 31.4545 21.2399C33.7054 19.895 36.2287 18.9622 38.8802 18.495C41.5316 18.0277 44.2594 18.0351 46.9077 18.5166C49.5561 18.9981 52.0731 19.9443 54.3151 21.3013C56.5571 22.6583 58.4801 24.3994 59.9745 26.4253C61.4688 28.4512 62.5051 30.7221 63.0243 33.1084C63.5435 35.4948 63.5353 37.9497 63.0003 40.3332H66.667C70.0706 40.3332 73.3348 41.6853 75.7415 44.092C78.1483 46.4988 79.5003 49.763 79.5003 53.1666C79.5003 56.5702 78.1483 59.8344 75.7415 62.2411C73.3348 64.6478 70.0706 65.9999 66.667 65.9999" stroke="#8D8686" stroke-width="5.5" stroke-linecap="round" stroke-linejoin="round"/>
<path d="M51.9997 73.3332V80.6665M37.333 47.6665V54.9998V47.6665ZM37.333 65.9998V73.3332V65.9998ZM51.9997 54.9998V62.3332V54.9998Z" stroke="#74B9FF" stroke-width="5.5" stroke-linecap="round" stroke-linejoin="round"/>
<path fill-rule="evenodd" clip-rule="evenodd" d="M64.5 0C65.8807 0 67 1.21523 67 2.71429V6.33333C67 7.83239 65.8807 9.04762 64.5 9.04762C63.1193 9.04762 62 7.83239 62 6.33333V2.71429C62 1.21523 63.1193 0 64.5 0ZM87.6011 10.2045C88.5774 11.2645 88.5774 12.9831 87.6011 14.0431L85.2678 16.5764C84.2915 17.6364 82.7086 17.6364 81.7322 16.5764C80.7559 15.5164 80.7559 13.7979 81.7322 12.7379L84.0656 10.2045C85.0419 9.14453 86.6248 9.14452 87.6011 10.2045ZM88.6667 35.2857C88.6667 33.7867 89.786 32.5714 91.1667 32.5714H94.5C95.8807 32.5714 97 33.7867 97 35.2857C97 36.7848 95.8807 38 94.5 38H91.1667C89.786 38 88.6667 36.7848 88.6667 35.2857Z" fill="#FFBF00"/>
</g>
<defs>
<clipPath id="clip0_101_2">
<rect width="100" height="88" fill="white"/>
</clipPath>
</defs>
</svg>
