<svg width="88" height="88" viewBox="0 0 88 88" fill="none" xmlns="http://www.w3.org/2000/svg">
<path d="M69.1136 9.01422C69.35 9.01422 69.5846 9.01422 69.8174 9.01422C67.5169 11.1364 66.0381 13.9917 65.6382 17.0839C65.2384 20.1762 65.9426 23.3097 67.6286 25.94C69.3146 28.5702 71.8757 30.5307 74.8667 31.4808C77.8578 32.4309 81.0896 32.3105 84.0005 31.1404C82.8807 33.8151 81.0506 36.1378 78.7054 37.8609C76.3602 39.584 73.5878 40.6427 70.684 40.9242C67.7802 41.2058 64.8538 40.6995 62.2171 39.4594C62.2171 37 62.4506 33.5495 60.8308 31.1404C59.211 28.7314 58.904 23.5 54.904 23.5C56.3083 21.5 52.6242 20.5543 53.9999 18C55.3755 15.4457 58.3284 12.7661 60.8308 11.2769C63.3333 9.78763 66.196 9.0007 69.1136 9V9.01422Z" stroke="#FFBF00" stroke-width="4" stroke-linecap="round" stroke-linejoin="round"/>
<path d="M21.25 65.85C16.675 65.85 12.2874 64.1116 9.05241 61.0173C5.81741 57.9229 4 53.7261 4 49.35C4 44.9739 5.81741 40.7771 9.05241 37.6827C12.2874 34.5884 16.675 32.85 21.25 32.85C22.3305 28.0363 25.4915 23.8061 30.0375 21.09C32.2884 19.7451 34.8117 18.8123 37.4632 18.3451C40.1146 17.8778 42.8424 17.8852 45.4907 18.3667C48.1391 18.8482 50.6561 19.7944 52.8981 21.1514C55.1401 22.5084 57.0631 24.2495 58.5575 26.2754C60.0518 28.3013 61.0881 30.5722 61.6073 32.9585C62.1265 35.3448 62.1184 37.7998 61.5833 40.1833H65.25C68.6536 40.1833 71.9178 41.5354 74.3245 43.9421C76.7313 46.3488 78.0833 49.6131 78.0833 53.0167C78.0833 56.4203 76.7313 59.6845 74.3245 62.0912C71.9178 64.4979 68.6536 65.85 65.25 65.85" stroke="#8D8686" stroke-width="5.5" stroke-linecap="round" stroke-linejoin="round"/>
<path d="M50.5827 73.1833V80.5166M35.916 47.5166V54.8499V47.5166ZM35.916 65.8499V73.1833V65.8499ZM50.5827 54.8499V62.1833V54.8499Z" stroke="#74B9FF" stroke-width="5.5" stroke-linecap="round" stroke-linejoin="round"/>
</svg>
