<svg width="35" height="35" viewBox="0 0 88 88" fill="none" xmlns="http://www.w3.org/2000/svg">
<path d="M69.1136 9.01422C69.35 9.01422 69.5846 9.01422 69.8174 9.01422C67.5169 11.1364 66.0381 13.9917 65.6382 17.0839C65.2384 20.1762 65.9426 23.3097 67.6286 25.94C69.3146 28.5702 71.8757 30.5307 74.8667 31.4808C77.8578 32.4309 81.0896 32.3105 84.0005 31.1404C82.8807 33.8151 81.0506 36.1378 78.7054 37.8609C76.3602 39.584 73.5878 40.6427 70.684 40.9242C67.7802 41.2058 64.8538 40.6995 62.2171 39.4594C62.2171 37 62.4506 33.5495 60.8308 31.1404C59.211 28.7314 58.904 23.5 54.904 23.5C56.3083 21.5 52.6242 20.5543 53.9999 18C55.3755 15.4457 58.3284 12.7661 60.8308 11.2769C63.3333 9.78763 66.196 9.0007 69.1136 9V9.01422Z" stroke="#FFBF00" fill="#FFBF00" stroke-width="4" stroke-linecap="round" stroke-linejoin="round"/>
<path d="M21.667 65.9999C17.092 65.9999 12.7044 64.2615 9.4694 61.1672C6.2344 58.0728 4.41699 53.876 4.41699 49.4999C4.41699 45.1238 6.2344 40.927 9.4694 37.8326C12.7044 34.7383 17.092 32.9999 21.667 32.9999C22.7475 28.1862 25.9085 23.956 30.4545 21.2399C32.7054 19.895 35.2287 18.9622 37.8802 18.495C40.5316 18.0277 43.2594 18.0351 45.9077 18.5166C48.5561 18.9981 51.0731 19.9443 53.3151 21.3013C55.5571 22.6583 57.4801 24.3994 58.9745 26.4253C60.4688 28.4512 61.5051 30.7221 62.0243 33.1084C62.5435 35.4948 62.5353 37.9497 62.0003 40.3332H65.667C69.0706 40.3332 72.3348 41.6853 74.7415 44.092C77.1483 46.4988 78.5003 49.763 78.5003 53.1666C78.5003 56.5702 77.1483 59.8344 74.7415 62.2411C72.3348 64.6478 69.0706 65.9999 65.667 65.9999H21.667Z" stroke="#9E9E9E" stroke-width="5.5" stroke-linecap="round" stroke-linejoin="round"/>
</svg>
